<svg width="25" height="25" viewBox="0 0 25 25" fill="none" xmlns="http://www.w3.org/2000/svg">
<path d="M11.6669 0.581925C11.9507 -0.193975 13.0484 -0.193975 13.3322 0.581925L14.1803 2.8978C14.8454 4.71457 15.8986 6.36446 17.2666 7.73248C18.6347 9.1005 20.2845 10.1538 22.1013 10.8188L24.4172 11.6669C25.1943 11.9507 25.1943 13.0484 24.4172 13.3322L22.1013 14.1803C20.2845 14.8454 18.6347 15.8986 17.2666 17.2666C15.8986 18.6347 14.8454 20.2845 14.1803 22.1013L13.3322 24.4172C13.0484 25.1943 11.9507 25.1943 11.6669 24.4172L10.8188 22.1013C10.1538 20.2845 9.1005 18.6347 7.73248 17.2666C6.36446 15.8986 4.71457 14.8454 2.8978 14.1803L0.581925 13.3322C-0.193975 13.0484 -0.193975 11.9507 0.581925 11.6669L2.8978 10.8188C4.71457 10.1538 6.36446 9.1005 7.73248 7.73248C9.1005 6.36446 10.1538 4.71457 10.8188 2.8978L11.6669 0.581925Z" fill="#FFB800"/>
</svg>
